<svg id="Layer_1" data-name="Layer 1" xmlns="http://www.w3.org/2000/svg" xmlns:xlink="http://www.w3.org/1999/xlink" viewBox="0 0 793.33 542"><defs><style>.cls-1{fill:url(#linear-gradient);}.cls-2{fill:url(#linear-gradient-2);}.cls-3,.cls-6{fill:#fff;}.cls-3{stroke:#000;stroke-linecap:round;stroke-linejoin:round;stroke-width:200px;}.cls-4{fill:url(#linear-gradient-3);}.cls-5{fill:url(#linear-gradient-4);}.cls-7{fill:#d611d6;}.cls-8{fill:url(#linear-gradient-5);}.cls-9{fill:url(#linear-gradient-6);}.cls-10{fill:url(#linear-gradient-7);}.cls-11{fill:url(#linear-gradient-8);}.cls-12{fill:url(#linear-gradient-9);}.cls-13{fill:url(#linear-gradient-10);}</style><linearGradient id="linear-gradient" x1="100.03" y1="369.12" x2="144.03" y2="369.12" gradientUnits="userSpaceOnUse"><stop offset="0" stop-color="red"/><stop offset="1" stop-color="#ff0"/></linearGradient><linearGradient id="linear-gradient-2" x1="163.11" y1="265.95" x2="243.52" y2="533.44" gradientUnits="userSpaceOnUse"><stop offset="0" stop-color="#ffe600"/><stop offset="0.12" stop-color="#fbd30a"/><stop offset="0.29" stop-color="#f7bd15"/><stop offset="0.49" stop-color="#f4ac1e"/><stop offset="0.71" stop-color="#f3a322"/><stop offset="1" stop-color="#f2a024"/></linearGradient><linearGradient id="linear-gradient-3" x1="144.03" y1="441.97" x2="293.87" y2="441.97" gradientUnits="userSpaceOnUse"><stop offset="0" stop-color="#fff"/><stop offset="1"/></linearGradient><linearGradient id="linear-gradient-4" x1="223.52" y1="488.82" x2="480.05" y2="488.82" gradientUnits="userSpaceOnUse"><stop offset="0" stop-color="#f2ad22"/><stop offset="0.1" stop-color="#eea323"/><stop offset="0.26" stop-color="#e48925"/><stop offset="0.41" stop-color="#d96a28"/><stop offset="1" stop-color="#c1272d"/></linearGradient><linearGradient id="linear-gradient-5" x1="237" y1="270.99" x2="308.74" y2="270.99" gradientUnits="userSpaceOnUse"><stop offset="0" stop-color="#c1272d"/><stop offset="1" stop-color="#c2bd27"/></linearGradient><linearGradient id="linear-gradient-6" x1="394.88" y1="507.78" x2="322.7" y2="125.16" gradientUnits="userSpaceOnUse"><stop offset="0" stop-color="#c1272d"/><stop offset="0.13" stop-color="#c22632"/><stop offset="0.29" stop-color="#c42441"/><stop offset="0.46" stop-color="#c7215a"/><stop offset="0.64" stop-color="#cb1d7c"/><stop offset="0.83" stop-color="#d017a8"/><stop offset="1" stop-color="#d611d6"/></linearGradient><linearGradient id="linear-gradient-7" x1="424.74" y1="270.98" x2="490.95" y2="270.98" xlink:href="#linear-gradient-3"/><linearGradient id="linear-gradient-8" x1="500.69" y1="96.98" x2="583.07" y2="516.8" gradientUnits="userSpaceOnUse"><stop offset="0" stop-color="#d611d6"/><stop offset="1" stop-color="#662d91"/></linearGradient><linearGradient id="linear-gradient-9" x1="625.31" y1="270.98" x2="693.31" y2="270.98" xlink:href="#linear-gradient-3"/><linearGradient id="linear-gradient-10" x1="708.61" y1="120.23" x2="781.48" y2="510.72" gradientUnits="userSpaceOnUse"><stop offset="0" stop-color="#d611d6"/><stop offset="1" stop-color="#0071bc"/></linearGradient></defs><line class="cls-1" x1="100.03" y1="296.28" x2="144.03" y2="441.97"/><path class="cls-2" d="M230.17,588.85a100,100,0,0,1-95.69-71.12L90.48,372a100,100,0,1,1,191.46-57.82l44,145.69a100.09,100.09,0,0,1-95.77,128.94Z" transform="translate(-86.18 -46.85)"/><path class="cls-3" d="M496.31,137.85" transform="translate(-86.18 -46.85)"/><line class="cls-4" x1="144.03" y1="441.97" x2="293.87" y2="441.97"/><path class="cls-5" d="M380.05,588.82H230.21a100,100,0,0,1,0-200H380.05a100,100,0,0,1,0,200Z" transform="translate(-86.18 -46.85)"/><line class="cls-6" x1="236.61" y1="100.02" x2="625.39" y2="100.02"/><path class="cls-7" d="M711.57,246.87H322.79c-55,0-99.61-44.77-99.61-100s44.6-100,99.61-100H711.57c55,0,99.61,44.77,99.61,100S766.58,246.87,711.57,246.87Z" transform="translate(-86.18 -46.85)"/><line class="cls-8" x1="308.74" y1="441.97" x2="237" y2="100.02"/><path class="cls-9" d="M394.82,588.84a100,100,0,0,1-97.77-79.49L225.31,167.41a100,100,0,1,1,195.74-41.07l71.74,342a100.08,100.08,0,0,1-98,120.55Z" transform="translate(-86.18 -46.85)"/><line class="cls-10" x1="424.74" y1="98.51" x2="490.95" y2="443.46"/><path class="cls-11" d="M577,588.82c-47.12,0-89.08-32.94-98.15-80.21l-66.21-345c-10.25-53.45,25.42-105,79.69-115.06s106.58,25,116.83,78.48l66.21,345C685.65,525.47,650,577,595.7,587.09A101.79,101.79,0,0,1,577,588.82Z" transform="translate(-86.18 -46.85)"/><line class="cls-12" x1="625.31" y1="98.51" x2="693.31" y2="443.46"/><path class="cls-13" d="M779.38,588.82c-46.92,0-88.78-32.67-98.06-79.73l-68-345C602.79,110.73,638.21,59,692.43,48.68s106.7,24.51,117.22,77.91l68,345c10.53,53.39-24.89,105.08-79.1,115.45A102.18,102.18,0,0,1,779.38,588.82Z" transform="translate(-86.18 -46.85)"/></svg>